<?xml version="1.0" standalone="no"?>
<!DOCTYPE svg PUBLIC "-//W3C//DTD SVG 20010904//EN"
 "http://www.w3.org/TR/2001/REC-SVG-20010904/DTD/svg10.dtd">
<svg version="1.0" xmlns="http://www.w3.org/2000/svg"
 width="100.000000pt" height="100.000000pt" viewBox="0 0 100.000000 100.000000"
 preserveAspectRatio="xMidYMid meet">

<g transform="translate(0.000000,100.000000) scale(0.100000,-0.100000)"
fill="#000000" stroke="none">
<path d="M635 879 c-44 -10 -90 -21 -102 -24 -22 -5 -23 -9 -23 -130 l0 -125
105 0 105 0 0 150 c0 83 -1 150 -2 149 -2 -1 -39 -10 -83 -20z m40 -89 c4 -6
-17 -10 -54 -10 -34 0 -61 4 -61 10 0 6 24 10 54 10 30 0 58 -4 61 -10z m-22
-47 c-18 -2 -48 -2 -65 0 -18 2 -4 4 32 4 36 0 50 -2 33 -4z m0 -50 c-18 -2
-48 -2 -65 0 -18 2 -4 4 32 4 36 0 50 -2 33 -4z m27 -43 c0 -6 -27 -10 -60
-10 -33 0 -60 4 -60 10 0 6 27 10 60 10 33 0 60 -4 60 -10z"/>
<path d="M650 576 c0 -2 7 -7 16 -10 8 -3 12 -2 9 4 -6 10 -25 14 -25 6z"/>
<path d="M376 533 c-6 -14 -5 -15 5 -6 7 7 10 15 7 18 -3 3 -9 -2 -12 -12z"/>
<path d="M513 464 c0 -17 2 -22 7 -13 5 6 6 18 3 26 -8 19 -10 16 -10 -13z"/>
<path d="M670 470 c-9 -6 -10 -10 -3 -10 6 0 15 5 18 10 8 12 4 12 -15 0z"/>
<path d="M465 461 c-3 -5 -2 -12 3 -15 5 -3 9 1 9 9 0 17 -3 19 -12 6z"/>
<path d="M370 426 c0 -2 7 -7 16 -10 8 -3 12 -2 9 4 -6 10 -25 14 -25 6z"/>
<path d="M519 393 c-13 -16 -12 -17 4 -4 9 7 17 15 17 17 0 8 -8 3 -21 -13z"/>
<path d="M280 185 c0 -69 3 -85 15 -85 12 0 15 13 16 58 l0 57 16 -32 c20 -40
30 -41 45 -8 18 39 28 30 28 -25 0 -38 4 -50 15 -50 12 0 15 16 15 85 0 78 -2
85 -20 85 -12 0 -26 -12 -35 -31 -13 -24 -19 -28 -30 -19 -8 7 -17 20 -20 31
-4 10 -15 19 -26 19 -17 0 -19 -8 -19 -85z"/>
<path d="M450 256 c0 -8 10 -16 23 -18 20 -3 22 -9 23 -68 1 -52 5 -66 18 -68
14 -3 16 7 16 67 0 64 2 71 20 71 11 0 20 7 20 15 0 12 -13 15 -60 15 -45 0
-60 -3 -60 -14z"/>
<path d="M600 202 c0 -54 4 -72 18 -85 24 -22 65 -21 85 1 23 25 25 152 2 152
-11 0 -15 -16 -17 -67 -3 -65 -4 -68 -28 -68 -24 0 -25 3 -28 68 -2 51 -6 67
-17 67 -12 0 -15 -15 -15 -68z"/>
</g>
</svg>
